<svg xmlns="http://www.w3.org/2000/svg"><symbol id="facebook" viewBox="0 0 430 430"><path d="M158.081 83.3v59.218h-43.385v72.412h43.385v215.183h89.122V214.936h59.805s5.601-34.721 8.316-72.685H247.54V92.74c0-7.4 9.717-17.354 19.321-17.354h48.557V.001h-66.021C155.878-.004 158.081 72.48 158.081 83.3z"/></symbol><symbol id="instagram" viewBox="0 0 512 512"><path d="M352 0H160C71.648 0 0 71.648 0 160v192c0 88.352 71.648 160 160 160h192c88.352 0 160-71.648 160-160V160C512 71.648 440.352 0 352 0zm112 352c0 61.76-50.24 112-112 112H160c-61.76 0-112-50.24-112-112V160C48 98.24 98.24 48 160 48h192c61.76 0 112 50.24 112 112v192z"/><path d="M256 128c-70.688 0-128 57.312-128 128s57.312 128 128 128 128-57.312 128-128-57.312-128-128-128zm0 208c-44.096 0-80-35.904-80-80 0-44.128 35.904-80 80-80s80 35.872 80 80c0 44.096-35.904 80-80 80z"/><circle cx="393.6" cy="118.4" r="17.056"/></symbol><symbol id="linkedin" viewBox="0 0 430 430"><path d="M430.117 261.543V420.56h-92.188V272.193c0-37.271-13.334-62.707-46.703-62.707-25.473 0-40.632 17.142-47.301 33.724-2.432 5.928-3.058 14.179-3.058 22.477V420.56h-92.219s1.242-251.285 0-277.32h92.21v39.309c-.187.294-.43.611-.606.896h.606v-.896c12.251-18.869 34.13-45.824 83.102-45.824 60.673-.001 106.157 39.636 106.157 124.818zM52.183 9.558C20.635 9.558 0 30.251 0 57.463c0 26.619 20.038 47.94 50.959 47.94h.616c32.159 0 52.159-21.317 52.159-47.94-.606-27.212-20-47.905-51.551-47.905zM5.477 420.56h92.184V143.24H5.477v277.32z"/></symbol><symbol id="next" viewBox="0 0 477 477"><path d="M360.731 229.075l-225.1-225.1c-5.3-5.3-13.8-5.3-19.1 0s-5.3 13.8 0 19.1l215.5 215.5-215.5 215.5c-5.3 5.3-5.3 13.8 0 19.1 2.6 2.6 6.1 4 9.5 4 3.4 0 6.9-1.3 9.5-4l225.1-225.1c5.3-5.2 5.3-13.8.1-19z"/></symbol><symbol id="phone" viewBox="0 0 578 578"><path d="M577.83 456.128c1.225 9.385-1.635 17.545-8.568 24.48l-81.396 80.781c-3.672 4.08-8.465 7.551-14.381 10.404-5.916 2.857-11.729 4.693-17.439 5.508-.408 0-1.635.105-3.676.309-2.037.203-4.689.307-7.953.307-7.754 0-20.301-1.326-37.641-3.979s-38.555-9.182-63.645-19.584c-25.096-10.404-53.553-26.012-85.376-46.818-31.823-20.805-65.688-49.367-101.592-85.68-28.56-28.152-52.224-55.08-70.992-80.783-18.768-25.705-33.864-49.471-45.288-71.299-11.425-21.828-19.993-41.616-25.705-59.364S4.59 177.362 2.55 164.51-.306 141.56.102 134.216c.408-7.344.612-11.424.612-12.24.816-5.712 2.652-11.526 5.508-17.442s6.324-10.71 10.404-14.382L98.022 8.756c5.712-5.712 12.24-8.568 19.584-8.568 5.304 0 9.996 1.53 14.076 4.59s7.548 6.834 10.404 11.322l65.484 124.236c3.672 6.528 4.692 13.668 3.06 21.42-1.632 7.752-5.1 14.28-10.404 19.584l-29.988 29.988c-.816.816-1.53 2.142-2.142 3.978s-.918 3.366-.918 4.59c1.632 8.568 5.304 18.36 11.016 29.376 4.896 9.792 12.444 21.726 22.644 35.802s24.684 30.293 43.452 48.653c18.36 18.77 34.68 33.354 48.96 43.76 14.277 10.4 26.215 18.053 35.803 22.949 9.588 4.896 16.932 7.854 22.031 8.871l7.648 1.531c.816 0 2.145-.307 3.979-.918 1.836-.613 3.162-1.326 3.979-2.143l34.883-35.496c7.348-6.527 15.912-9.791 25.705-9.791 6.938 0 12.443 1.223 16.523 3.672h.611l118.115 69.768c8.571 5.308 13.67 12.038 15.303 20.198z" fill="#010002"/></symbol><symbol id="twitter" viewBox="0 0 612 612"><path d="M612 116.258a250.714 250.714 0 0 1-72.088 19.772c25.929-15.527 45.777-40.155 55.184-69.411-24.322 14.379-51.169 24.82-79.775 30.48-22.907-24.437-55.49-39.658-91.63-39.658-69.334 0-125.551 56.217-125.551 125.513 0 9.828 1.109 19.427 3.251 28.606-104.326-5.24-196.835-55.223-258.75-131.174-10.823 18.51-16.98 40.078-16.98 63.101 0 43.559 22.181 81.993 55.835 104.479a125.556 125.556 0 0 1-56.867-15.756v1.568c0 60.806 43.291 111.554 100.693 123.104-10.517 2.83-21.607 4.398-33.08 4.398-8.107 0-15.947-.803-23.634-2.333 15.985 49.907 62.336 86.199 117.253 87.194-42.947 33.654-97.099 53.655-155.916 53.655-10.134 0-20.116-.612-29.944-1.721 55.567 35.681 121.536 56.485 192.438 56.485 230.948 0 357.188-191.291 357.188-357.188l-.421-16.253c24.666-17.593 46.005-39.697 62.794-64.861z"/></symbol><symbol id="vimeo" viewBox="0 0 512.011 512.011"><path d="M293.792 152.808c58.304-35.008 89.728 14.336 59.84 70.112-29.952 56-57.44 92.512-71.68 92.512-13.984 0-25.056-37.568-41.44-102.784-16.8-67.552-16.8-189.344-87.072-175.52C87.008 50.248 0 154.248 0 154.248l20.672 27.232s42.88-33.824 57.152-16.992c14.464 16.992 69.216 221.024 87.328 258.752 15.808 33.056 59.68 76.672 107.616 45.568 48.384-31.296 208.096-167.68 236.704-329.056 28.544-161.088-192.512-127.36-215.68 13.056z"/></symbol><symbol id="youtube" viewBox="0 0 90 90"><path d="M90 26.958C90 19.525 83.979 13.5 76.55 13.5h-63.1C6.021 13.5 0 19.525 0 26.958v36.084C0 70.475 6.021 76.5 13.45 76.5h63.1C83.979 76.5 90 70.475 90 63.042V26.958zM36 60.225V26.33l25.702 16.947L36 60.225z"/></symbol></svg>